<svg xmlns="http://www.w3.org/2000/svg" xmlns:xlink="http://www.w3.org/1999/xlink" width="135.257" height="70.244" viewBox="0 0 135.257 70.244">
  <defs>
    <filter id="Path_1086" x="22.458" y="12.254" width="112.799" height="45.737" filterUnits="userSpaceOnUse">
      <feOffset input="SourceAlpha"/>
      <feGaussianBlur stdDeviation="3" result="blur"/>
      <feFlood flood-opacity="0.529"/>
      <feComposite operator="in" in2="blur"/>
      <feComposite in="SourceGraphic"/>
    </filter>
    <filter id="Subtraction_1" x="0" y="0" width="51.83" height="70.244" filterUnits="userSpaceOnUse">
      <feOffset input="SourceAlpha"/>
      <feGaussianBlur stdDeviation="3" result="blur-2"/>
      <feFlood flood-opacity="0.529"/>
      <feComposite operator="in" in2="blur-2"/>
      <feComposite in="SourceGraphic"/>
    </filter>
    <clipPath id="clip-path">
      <path id="Path_1088" data-name="Path 1088" d="M2.639,12.557a11.8,11.8,0,1,0,11.8-11.8,11.8,11.8,0,0,0-11.8,11.8" transform="translate(-2.639 -0.752)" fill="none"/>
    </clipPath>
  </defs>
  <g id="Component_22_1" data-name="Component 22 – 1" transform="translate(9 9)">
    <g transform="matrix(1, 0, 0, 1, -9, -9)" filter="url(#Path_1086)">
      <path id="Path_1086-2" data-name="Path 1086" d="M15.757,0H97.515a4.079,4.079,0,0,1,4.079,4.079V23.658a4.079,4.079,0,0,1-4.079,4.079L6.794,27.62,16.928,5.546Z" transform="translate(24.66 21.25)" fill="#fff"/>
    </g>
    <g transform="matrix(1, 0, 0, 1, -9, -9)" filter="url(#Subtraction_1)">
      <path id="Subtraction_1-2" data-name="Subtraction 1" d="M16.915,0A16.915,16.915,0,0,1,33.83,16.915c0,9.342-17.017,35.691-16.915,35.325S0,26.257,0,16.915A16.915,16.915,0,0,1,16.915,0Z" transform="translate(9 9)" fill="#f1c819"/>
    </g>
    <g id="Group_1134" data-name="Group 1134" transform="translate(4.574 4.574)">
      <ellipse id="Ellipse_29" data-name="Ellipse 29" cx="13.394" cy="13.394" rx="13.394" ry="13.394" transform="translate(-1 -1)" fill="#fff"/>
      <g id="Group_1133" data-name="Group 1133" transform="translate(0.59 0.59)">
        <g id="Group_1132" data-name="Group 1132" transform="translate(0 0)" clip-path="url(#clip-path)">
          <rect id="Rectangle_168" data-name="Rectangle 168" width="6.591" height="24.864" transform="translate(-2.203 -0.628)" fill="#ea0020"/>
          <rect id="Rectangle_169" data-name="Rectangle 169" width="6.591" height="24.864" transform="translate(19.221 -0.628)" fill="#ea0020"/>
          <rect id="Rectangle_170" data-name="Rectangle 170" width="14.833" height="24.864" transform="translate(4.388 -0.628)" fill="#fff"/>
          <path id="Path_1087" data-name="Path 1087" d="M15.679,7.644l-.972,1.888c-.11.205-.307.184-.5.071l-.7-.381.525,2.9c.111.531-.244.531-.418.3l-1.228-1.432-.2.726a.238.238,0,0,1-.275.172l-1.552-.341.408,1.544c.088.345.154.487-.088.578l-.553.27,2.673,2.262a.369.369,0,0,1,.12.378l-.234.8c.92-.11,1.746-.211,2.664-.322.081,0,.219.073.218.17l-.123,2.93h.448l-.072-2.923c0-.1.124-.177.2-.177.921.111,1.746.212,2.667.322l-.236-.8a.379.379,0,0,1,.123-.378l2.673-2.262-.553-.27c-.244-.091-.175-.234-.088-.578l.408-1.544-1.553.341a.238.238,0,0,1-.275-.172l-.2-.726-1.229,1.432c-.174.229-.528.229-.417-.3l.523-2.9-.7.381c-.2.113-.4.134-.506-.071Z" transform="translate(-3.875 -1.891)" fill="#ea0020"/>
        </g>
      </g>
    </g>
  </g>
</svg>
